<?xml version="1.0" encoding="utf-8"?>
<!-- Generator: Adobe Illustrator 25.1.0, SVG Export Plug-In . SVG Version: 6.00 Build 0)  -->
<svg version="1.1" xmlns="http://www.w3.org/2000/svg" xmlns:xlink="http://www.w3.org/1999/xlink" x="0px" y="0px"
	 viewBox="0 0 305.6 190" style="enable-background:new 0 0 305.6 190;" xml:space="preserve">
<style type="text/css">
	.st0{display:none;}
	.st1{fill:#0A1128;}
	.st2{fill:#EDEFF4;}
	.st3{fill:#D1D2D3;}
	.st4{fill:#5B3FF4;}
	.st5{fill:#F6F7FC;}
</style>
<g id="Layer_1" class="st0">
	
		<image style="display:inline;overflow:visible;" width="830" height="596" xlink:href="98CB40D5.jpg"  transform="matrix(0.6045 0 0 0.6045 -1.1358 69.7826)">
	</image>
</g>
<g id="Layer_2">
	<text transform="matrix(1 0 0 1 -312.9113 217.8685)" class="st4" style="font-family:'Syne-Bold'; font-size:53px;">404</text>
	
		<text transform="matrix(1 0 0 1 -310.4207 312.153)" style="fill:none;stroke:#5B3FF4;stroke-miterlimit:10; font-family:'Syne-Bold'; font-size:53px;">404</text>
	<g>
		<g>
			<path class="st1" d="M163.7,147.9H8.8c-4.9,0-8.8-4-8.8-8.9V8.9C0,4,4,0,8.8,0h154.8c4.9,0,8.9,4,8.9,8.9V139
				C172.5,143.9,168.6,147.9,163.7,147.9z M8.8,0.8c-4.5,0-8.1,3.6-8.1,8.1V139c0,4.5,3.6,8.1,8.1,8.1h154.8c4.5,0,8.1-3.6,8.1-8.1
				V8.9c0-4.5-3.6-8.1-8.1-8.1H8.8z"/>
		</g>
		<g>
			<path class="st1" d="M155.1,117.8H17.4c-1.1,0-2-0.9-2-2V17.4c0-1.1,0.9-2,2-2h137.7c1.1,0,2,0.9,2,2v98.3
				C157.2,116.9,156.2,117.8,155.1,117.8z"/>
			<path class="st1" d="M155.1,118.1H17.4c-1.3,0-2.4-1.1-2.4-2.4V17.4c0-1.3,1.1-2.4,2.4-2.4h137.7c1.3,0,2.4,1.1,2.4,2.4v98.3
				C157.5,117.1,156.5,118.1,155.1,118.1z M17.4,15.7c-0.9,0-1.6,0.7-1.6,1.6v98.3c0,0.9,0.7,1.6,1.6,1.6h137.7
				c0.9,0,1.6-0.7,1.6-1.6V17.4c0-0.9-0.7-1.6-1.6-1.6H17.4z"/>
		</g>
		<g>
			<path class="st2" d="M203.7,8.9V139c0,4.7-3.8,8.5-8.5,8.5h-31.6c4.7,0,8.5-3.8,8.5-8.5V8.9c0-4.7-3.8-8.5-8.5-8.5h31.6
				C199.9,0.4,203.7,4.2,203.7,8.9z"/>
			<path class="st1" d="M195.2,147.9h-31.6v-0.8c4.5,0,8.1-3.6,8.1-8.1V8.9c0-4.5-3.6-8.1-8.1-8.1V0h31.6c4.9,0,8.9,4,8.9,8.9V139
				C204.1,143.9,200.1,147.9,195.2,147.9z M167.2,147.1h28c4.5,0,8.1-3.6,8.1-8.1V8.9c0-4.5-3.6-8.1-8.1-8.1h-28
				c3.1,1.4,5.3,4.5,5.3,8.1V139C172.5,142.6,170.4,145.8,167.2,147.1z"/>
		</g>
		<g>
			<path class="st1" d="M179.9,147.9v-0.8c4.5,0,8.1-3.6,8.1-8.1V8.9c0-4.5-3.6-8.1-8.1-8.1V0c4.9,0,8.9,4,8.9,8.9V139
				C188.7,143.9,184.8,147.9,179.9,147.9z"/>
		</g>
		<g>
			<path class="st3" d="M232.1,109.5l-28.4,18.1V20.4L232,37.4c2,1.2,3.2,3.3,3.2,5.7v60.8C235.2,106.1,234,108.3,232.1,109.5z"/>
			<path class="st1" d="M203.3,128.2V19.7l28.8,17.4c2.1,1.3,3.4,3.5,3.4,6v60.8c0,2.4-1.2,4.6-3.2,5.9L203.3,128.2z M204.1,21
				v105.8l27.8-17.7c1.8-1.2,2.9-3.1,2.9-5.3V43.1c0-2.2-1.2-4.2-3-5.3L204.1,21z"/>
		</g>
		<g>
			<path class="st1" d="M129.3,160.5H51.6v-13.4h77.7V160.5z M52.4,159.8h76.2v-11.9H52.4V159.8z"/>
		</g>
		<g>
			<rect x="128.9" y="147.5" class="st3" width="20.9" height="12.6"/>
			<path class="st1" d="M150.2,160.5h-21.6v-13.4h21.6V160.5z M129.3,159.8h20.1v-11.9h-20.1V159.8z"/>
		</g>
		<g>
			<path class="st1" d="M134.2,166.4h-96c-1.1,0-1.9-0.9-1.9-1.9v-2.7c0-1.1,0.9-1.9,1.9-1.9h96c1.1,0,1.9,0.9,1.9,1.9v2.7
				C136.1,165.5,135.2,166.4,134.2,166.4z M38.2,160.5c-0.7,0-1.2,0.5-1.2,1.2v2.7c0,0.7,0.5,1.2,1.2,1.2h96c0.7,0,1.2-0.5,1.2-1.2
				v-2.7c0-0.7-0.5-1.2-1.2-1.2H38.2z"/>
		</g>
		<g>
			<path class="st2" d="M168.3,161.7v2.7c0,0.9-0.7,1.6-1.6,1.6h-32.6c0.9,0,1.6-0.7,1.6-1.6v-2.7c0-0.9-0.7-1.6-1.6-1.6h32.6
				C167.6,160.2,168.3,160.9,168.3,161.7z"/>
			<path class="st1" d="M166.8,166.4h-32.6v-0.8c0.7,0,1.2-0.5,1.2-1.2v-2.7c0-0.7-0.5-1.2-1.2-1.2v-0.8h32.6c1.1,0,1.9,0.9,1.9,1.9
				v2.7C168.7,165.5,167.8,166.4,166.8,166.4z M135.7,165.7h31.1c0.7,0,1.2-0.5,1.2-1.2v-2.7c0-0.7-0.5-1.2-1.2-1.2h-31.1
				c0.3,0.3,0.4,0.7,0.4,1.2v2.7C136.1,164.9,135.9,165.3,135.7,165.7z"/>
		</g>
		<g>
			<path class="st1" d="M151.4,138.7c-3.4,0-6.1-2.7-6.1-6.1s2.7-6.1,6.1-6.1c3.4,0,6.1,2.7,6.1,6.1S154.8,138.7,151.4,138.7z
				 M151.4,127.3c-3,0-5.4,2.4-5.4,5.4s2.4,5.4,5.4,5.4c3,0,5.4-2.4,5.4-5.4S154.4,127.3,151.4,127.3z"/>
		</g>
		<g>
			<path class="st1" d="M35.6,135.2c-1.4,0-2.6-1.2-2.6-2.6s1.2-2.6,2.6-2.6s2.6,1.2,2.6,2.6S37,135.2,35.6,135.2z M35.6,130.8
				c-1,0-1.8,0.8-1.8,1.8s0.8,1.8,1.8,1.8s1.8-0.8,1.8-1.8S36.6,130.8,35.6,130.8z"/>
		</g>
		<g>
			<path class="st1" d="M26.6,135.2c-1.4,0-2.6-1.2-2.6-2.6s1.2-2.6,2.6-2.6s2.6,1.2,2.6,2.6S28,135.2,26.6,135.2z M26.6,130.8
				c-1,0-1.8,0.8-1.8,1.8s0.8,1.8,1.8,1.8s1.8-0.8,1.8-1.8S27.6,130.8,26.6,130.8z"/>
		</g>
		<g>
			<g>
				<circle class="st4" cx="17.6" cy="132.6" r="2.2"/>
			</g>
			<g>
				<path class="st4" d="M17.6,135.2c-1.4,0-2.6-1.2-2.6-2.6s1.2-2.6,2.6-2.6s2.6,1.2,2.6,2.6S19,135.2,17.6,135.2z M17.6,130.8
					c-1,0-1.8,0.8-1.8,1.8s0.8,1.8,1.8,1.8c1,0,1.8-0.8,1.8-1.8S18.6,130.8,17.6,130.8z"/>
			</g>
		</g>
		<g>
			<g>
				<path class="st2" d="M216.6,174.9v8.6c0,1.3-0.8,2.5-2.1,2.9l-11.6,3.2c0.9-0.3,1.6-1.2,1.6-2.2v-16.1c0-1-0.7-1.9-1.6-2.2
					l11.6,3.2C215.8,172.4,216.6,173.6,216.6,174.9z"/>
				<path class="st1" d="M203.1,189.8l-0.2-0.7c0.8-0.3,1.4-1,1.4-1.9v-16.1c0-0.9-0.5-1.6-1.4-1.9l0.2-0.7l11.6,3.2
					c1.4,0.5,2.3,1.7,2.3,3.2v8.6c0,1.5-0.9,2.8-2.3,3.2L203.1,189.8z M204.6,169.6c0.3,0.4,0.4,0.9,0.4,1.4v16.1
					c0,0.5-0.1,1-0.4,1.4l9.9-2.7c1.1-0.4,1.8-1.4,1.8-2.5v-8.6c0-1.1-0.7-2.1-1.8-2.5L204.6,169.6z"/>
			</g>
			<g>
				<path class="st1" d="M202.2,190h-16.1c-1.5,0-2.8-1.2-2.8-2.8v-16.1c0-1.5,1.2-2.8,2.8-2.8h16.1c0.1,0,0.2,0,0.3,0l0.2,0
					c0.1,0,0.2,0,0.3,0.1c1.1,0.4,1.8,1.4,1.8,2.6v16.1c0,1.2-0.8,2.2-1.9,2.6c-0.1,0-0.2,0.1-0.3,0.1l0,0l-0.2,0
					C202.5,190,202.3,190,202.2,190z M186.1,169.1c-1.1,0-2,0.9-2,2v16.1c0,1.1,0.9,2,2,2h16.1c0.1,0,0.2,0,0.2,0l0.1,0
					c0.1,0,0.2,0,0.3-0.1c0.8-0.3,1.4-1,1.4-1.9v-16.1c0-0.9-0.5-1.6-1.4-1.9c-0.1,0-0.2-0.1-0.3-0.1l-0.1,0c0,0,0,0,0,0
					c-0.1,0-0.2,0-0.3,0H186.1z"/>
			</g>
			<g>
				<path class="st1" d="M290.5,180h-73.9v-0.8h73.9c7.9,0,14.3-6.4,14.3-14.3c0-7.9-6.4-14.3-14.3-14.3h-40.1
					c-7.6,0-13.8-6.2-13.8-13.8c0-7.6,6.2-13.8,13.8-13.8h13.6c8,0,14.6-6.5,14.6-14.6c0-8-6.5-14.6-14.6-14.6h-28.9v-0.8h28.9
					c8.4,0,15.3,6.9,15.3,15.3c0,8.4-6.9,15.3-15.3,15.3h-13.6c-7.2,0-13,5.8-13,13c0,7.2,5.8,13,13,13h40.1c8.3,0,15,6.8,15,15
					C305.6,173.2,298.8,180,290.5,180z"/>
			</g>
			<g>
				<path class="st1" d="M196.5,175.1h-18.4c-0.2,0-0.4-0.2-0.4-0.4s0.2-0.4,0.4-0.4h18.4c0.2,0,0.4,0.2,0.4,0.4
					S196.8,175.1,196.5,175.1z"/>
			</g>
			<g>
				<path class="st1" d="M196.5,184h-18.4c-0.2,0-0.4-0.2-0.4-0.4s0.2-0.4,0.4-0.4h18.4c0.2,0,0.4,0.2,0.4,0.4S196.8,184,196.5,184z
					"/>
			</g>
		</g>
		<g>
			<g>
				<path class="st1" d="M209.7,82.4c-0.2,0-0.4-0.2-0.4-0.4V47c0-0.2,0.2-0.4,0.4-0.4s0.4,0.2,0.4,0.4v35
					C210.1,82.2,209.9,82.4,209.7,82.4z"/>
			</g>
			<g>
				<path class="st1" d="M214.6,82.4c-0.2,0-0.4-0.2-0.4-0.4V47c0-0.2,0.2-0.4,0.4-0.4s0.4,0.2,0.4,0.4v35
					C215,82.2,214.8,82.4,214.6,82.4z"/>
			</g>
			<g>
				<path class="st1" d="M219.5,82.4c-0.2,0-0.4-0.2-0.4-0.4V47c0-0.2,0.2-0.4,0.4-0.4s0.4,0.2,0.4,0.4v35
					C219.9,82.2,219.7,82.4,219.5,82.4z"/>
			</g>
			<g>
				<path class="st1" d="M224.4,82.4c-0.2,0-0.4-0.2-0.4-0.4V47c0-0.2,0.2-0.4,0.4-0.4s0.4,0.2,0.4,0.4v35
					C224.7,82.2,224.6,82.4,224.4,82.4z"/>
			</g>
			<g>
				<path class="st1" d="M229.3,82.4c-0.2,0-0.4-0.2-0.4-0.4V47c0-0.2,0.2-0.4,0.4-0.4s0.4,0.2,0.4,0.4v35
					C229.6,82.2,229.5,82.4,229.3,82.4z"/>
			</g>
		</g>
		<g>
			<g>
				<path class="st5" d="M55.7,53.6v21.8h6.1v5.3h-6.1v7.1h-6.9v-7.1H28.7v-5.3l20.1-21.8H55.7z M37,75.5h11.8V62.3L37,75.5z"/>
			</g>
			<g>
				<path class="st5" d="M83.5,80.8c-3.3,0-6.2-0.5-8.8-1.6c-2.5-1.1-4.5-2.6-5.9-4.6c-1.4-2-2.1-4.5-2.1-7.5s0.7-5.5,2.1-7.6
					c1.4-2.1,3.4-3.6,5.9-4.7c2.5-1.1,5.5-1.6,8.8-1.6c3.3,0,6.2,0.5,8.7,1.6c2.5,1.1,4.4,2.6,5.9,4.7c1.4,2.1,2.1,4.6,2.1,7.6
					s-0.7,5.5-2.1,7.5c-1.4,2-3.4,3.6-5.9,4.6C89.7,80.3,86.8,80.8,83.5,80.8z M83.5,75.5c1.8,0,3.4-0.3,4.9-1
					c1.5-0.7,2.6-1.6,3.5-2.9c0.9-1.3,1.3-2.8,1.3-4.6s-0.4-3.3-1.3-4.6c-0.9-1.3-2-2.3-3.5-2.9c-1.4-0.7-3.1-1-4.9-1
					c-1.8,0-3.4,0.3-4.9,1c-1.5,0.7-2.7,1.6-3.6,2.9c-0.9,1.3-1.3,2.8-1.3,4.7c0,1.8,0.4,3.3,1.3,4.6c0.9,1.3,2,2.2,3.5,2.9
					C80,75.2,81.6,75.5,83.5,75.5z"/>
			</g>
			<g>
				<path class="st5" d="M132.4,53.6v21.8h6.1v5.3h-6.1v7.1h-6.9v-7.1h-20.1v-5.3l20.1-21.8H132.4z M113.8,75.5h11.8V62.3
					L113.8,75.5z"/>
			</g>
		</g>
	</g>
</g>
</svg>
