<?xml version="1.0" encoding="utf-8"?>
<!-- Generator: Adobe Illustrator 25.1.0, SVG Export Plug-In . SVG Version: 6.00 Build 0)  -->
<svg version="1.1" id="Layer_1" xmlns="http://www.w3.org/2000/svg" xmlns:xlink="http://www.w3.org/1999/xlink" x="0px" y="0px"
	 viewBox="0 0 50 35.7" style="enable-background:new 0 0 50 35.7;" xml:space="preserve">
<style type="text/css">
	.st0{fill:none;stroke:#0A1128;stroke-width:0.75;stroke-miterlimit:10;}
	.st1{fill:#F6F7FC;}
	.st2{fill:#0A1128;}
</style>
<g>
	<g>
		<path class="st0" d="M38.2,19.1"/>
	</g>
	<g>
		<path class="st1" d="M39.9,35.3H1.7c-0.7,0-1.3-0.6-1.3-1.3V11c0-0.7,0.6-1.3,1.3-1.3h38.2c0.7,0,1.3,0.6,1.3,1.3v22.9
			C41.3,34.7,40.7,35.3,39.9,35.3z"/>
		<path class="st2" d="M39.9,35.7H1.7c-1,0-1.7-0.8-1.7-1.7V11c0-1,0.8-1.7,1.7-1.7h38.2c1,0,1.7,0.8,1.7,1.7v22.9
			C41.7,34.9,40.9,35.7,39.9,35.7z M1.7,10c-0.5,0-1,0.4-1,1v22.9c0,0.5,0.4,1,1,1h38.2c0.5,0,1-0.4,1-1V11c0-0.5-0.4-1-1-1H1.7z"/>
	</g>
	<g>
		<rect x="33" y="18.7" transform="matrix(0.6333 -0.7739 0.7739 0.6333 -9.8994 36.2743)" class="st2" width="0.8" height="19.7"/>
	</g>
	<g>
		
			<rect x="-1.5" y="28.2" transform="matrix(0.774 -0.6332 0.6332 0.774 -16.2167 11.7386)" class="st2" width="19.7" height="0.8"/>
	</g>
	<g>
		<path class="st2" d="M20.8,26.1c-0.5,0-1.1-0.2-1.5-0.5L0.5,10.2L1,9.6L19.8,25c0.6,0.5,1.5,0.5,2.1,0L40.7,9.6l0.5,0.6L22.3,25.6
			C21.9,25.9,21.4,26.1,20.8,26.1z"/>
	</g>
</g>
<g>
	<g>
		<path class="st2" d="M49.6,10h-4.6c-0.2,0-0.4-0.2-0.4-0.4c0-0.2,0.2-0.4,0.4-0.4h4.6c0.2,0,0.4,0.2,0.4,0.4
			C50,9.9,49.8,10,49.6,10z"/>
	</g>
	<g>
		<path class="st2" d="M44,7.1c-0.1,0-0.2,0-0.3-0.1c-0.2-0.1-0.2-0.4,0-0.5l5.5-6.1c0.1-0.2,0.4-0.2,0.5,0c0.2,0.1,0.2,0.4,0,0.5
			l-5.5,6.1C44.2,7,44.1,7.1,44,7.1z"/>
	</g>
	<g>
		<path class="st2" d="M41.3,5.8c-0.2,0-0.4-0.2-0.4-0.4V0.4c0-0.2,0.2-0.4,0.4-0.4c0.2,0,0.4,0.2,0.4,0.4v5.1
			C41.7,5.7,41.5,5.8,41.3,5.8z"/>
	</g>
</g>
</svg>
