<?xml version="1.0" encoding="utf-8"?>
<!-- Generator: Adobe Illustrator 25.1.0, SVG Export Plug-In . SVG Version: 6.00 Build 0)  -->
<svg version="1.1" id="Layer_1" xmlns="http://www.w3.org/2000/svg" xmlns:xlink="http://www.w3.org/1999/xlink" x="0px" y="0px"
	 viewBox="0 0 30 30" style="enable-background:new 0 0 30 30;" xml:space="preserve">
<style type="text/css">
	.st0{fill:#EDEFF4;}
	.st1{fill:#0A1128;}
</style>
<g>
	<path class="st0" d="M15,29.6C6.9,29.6,0.4,23.1,0.4,15C0.4,6.9,6.9,0.4,15,0.4c8.1,0,14.6,6.6,14.6,14.6
		C29.6,23.1,23.1,29.6,15,29.6z"/>
	<path class="st1" d="M15,0.8c7.9,0,14.2,6.4,14.2,14.2S22.9,29.2,15,29.2S0.8,22.9,0.8,15S7.1,0.8,15,0.8 M15,0C6.7,0,0,6.7,0,15
		s6.7,15,15,15s15-6.7,15-15S23.3,0,15,0L15,0z"/>
</g>
<g>
	<polygon class="st1" points="22.1,15.4 9.4,15.4 15.9,21.9 15.4,22.4 7.9,15 8.2,14.7 8.8,14.2 15.4,7.6 15.9,8.1 9.4,14.6 
		22.1,14.6 	"/>
</g>
</svg>
