<?xml version="1.0" encoding="utf-8"?>
<!-- Generator: Adobe Illustrator 25.1.0, SVG Export Plug-In . SVG Version: 6.00 Build 0)  -->
<svg version="1.1" id="Layer_1" xmlns="http://www.w3.org/2000/svg" xmlns:xlink="http://www.w3.org/1999/xlink" x="0px" y="0px"
	 viewBox="0 0 30 30" style="enable-background:new 0 0 30 30;" xml:space="preserve">
<style type="text/css">
	.st0{fill:#EDEFF4;}
	.st1{fill:#B2B3BA;}
</style>
<path class="st0" d="M15,0.4C23.1,0.4,29.6,7,29.6,15c0,8.1-6.6,14.6-14.6,14.6C6.9,29.6,0.4,23.1,0.4,15S6.9,0.4,15,0.4z"/>
<path class="st1" d="M15,29.2C7.1,29.2,0.8,22.9,0.8,15S7.1,0.8,15,0.8S29.2,7.1,29.2,15S22.9,29.2,15,29.2 M15,30
	c8.3,0,15-6.7,15-15S23.3,0,15,0S0,6.7,0,15S6.7,30,15,30L15,30z"/>
<g>
	<polygon class="st1" points="7.9,14.6 20.6,14.6 14.1,8.1 14.6,7.6 22.1,15 21.8,15.3 21.2,15.8 14.6,22.4 14.1,21.9 20.6,15.4 
		7.9,15.4 	"/>
</g>
</svg>
