<?xml version="1.0" encoding="utf-8"?>
<!-- Generator: Adobe Illustrator 25.1.0, SVG Export Plug-In . SVG Version: 6.00 Build 0)  -->
<svg version="1.1" id="Layer_1" xmlns="http://www.w3.org/2000/svg" xmlns:xlink="http://www.w3.org/1999/xlink" x="0px" y="0px"
	 viewBox="0 0 489.6 500" style="enable-background:new 0 0 489.6 500;" xml:space="preserve">
<style type="text/css">
	.st0{fill:#0A1128;}
	.st1{fill:none;}
</style>
<rect x="1503.9" y="423.9" class="st1" width="9.4" height="0"/>
<g>
	<path class="st0" d="M400.2,375.7L174.3,149.8c-8-8-6.1-21.5,3.8-27.1c55.7-31.5,127.8-23.5,175.2,23.9
		c41.3,41.3,52.7,101.5,34.1,153.1c-2.3,6.3-0.8,13.3,4,18.1l0.4,0.4c8.9,8.9,23.9,5.5,28.2-6.3c7.1-19.6,10.8-40.5,10.8-62
		c0-10.8-0.9-21.5-2.8-31.9c-1.9-10.4,6.3-20,16.9-20h27.6c11.5,0,19.8-11.2,16.4-22.2c-2.4-7.8-5.3-15.6-8.5-23.2
		c-12.6-29.8-30.6-56.5-53.6-79.5c-23-23-49.7-41-79.5-53.6C316.5,6.6,283.7,0,250,0s-66.5,6.6-97.3,19.7
		c-29.8,12.6-56.5,30.6-79.5,53.6c-23,23-41,49.7-53.6,79.5C6.6,183.5,0,216.3,0,250c0,33.7,6.6,66.5,19.7,97.3
		c12.6,29.8,30.6,56.5,53.6,79.5c23,23,49.7,41,79.5,53.6c30.8,13,63.6,19.7,97.3,19.7s66.5-6.6,97.3-19.7
		c29.8-12.6,56.5-30.6,79.5-53.6c23-23,41-49.7,53.6-79.5c3.2-7.6,6.1-15.4,8.5-23.2c3.4-11-4.9-22.2-16.4-22.2H472
		c-7.5,0-14.1,4.9-16.4,12.1c-6.7,21.4-16.6,41.4-29.3,59.4C420.3,382.2,407.8,383.3,400.2,375.7z M73.7,126.4
		c6.1-8.7,18.6-9.7,26.1-2.2l10.7,10.7l23.1,23.1l192.1,192.1c8,8,6.1,21.5-3.8,27.1c-55.7,31.5-127.9,23.5-175.3-23.9
		c-41.3-41.3-52.7-101.5-34-153.1c2.3-6.3,0.8-13.3-4-18.1l-17.9-17.9l-15.4-15.4c-5.8-5.8-6.7-15.1-2-21.9
		C73.5,126.8,73.6,126.6,73.7,126.4z"/>
</g>
<line class="st1" x1="2670.8" y1="2022.1" x2="2655.1" y2="2022.1"/>
<path d="M2742.4,2172.1L2742.4,2172.1z"/>
<line class="st1" x1="2660.7" y1="2301.7" x2="2657.4" y2="2298.4"/>
<line class="st1" x1="2154.4" y1="1936.8" x2="2149.4" y2="1931.8"/>
<line class="st1" x1="2184" y1="1895.7" x2="2166.2" y2="1877.9"/>
</svg>
